# xmcd CD database file
#
# Track frame offsets:
#	150
#	20212
#	40450
#	61134
#	81201
#	104306
#	123355
#	139764
#	158043
#	175918
#	195230
#	213642
#
# Disc length: 3248 seconds
#
# Revision: 0
# Processed by: cddbd v1.5.2PL0 Copyright (c) Steve Scherf et al.
# Submitted via: CDex 1.78
#
DISCID=a40cae0c
DTITLE=Michael Lington -  Second Nature
DYEAR=2016
DGENRE=Jazz
TTITLE0=Beale Street
TTITLE1=Stone Cool
TTITLE2=Slick
TTITLE3=Memphis Strut
TTITLE4=Some Kinda Way
TTITLE5=Second Nature
TTITLE6=Soul Finger
TTITLE7=Block Party
TTITLE8=Alright
TTITLE9=On A Sunday Morning
TTITLE10=Wooh
TTITLE11=Midnight Drive
EXTD=YEAR: 2016
EXTT0=
EXTT1=
EXTT2=
EXTT3=
EXTT4=
EXTT5=
EXTT6=
EXTT7=
EXTT8=
EXTT9=
EXTT10=
EXTT11=
PLAYORDER=
